%TF.GenerationSoftware,KiCad,Pcbnew,7.0.10-7.0.10~ubuntu22.04.1*%
%TF.CreationDate,2024-09-08T18:38:02-07:00*%
%TF.ProjectId,SPE_adapter_B_WCR,5350455f-6164-4617-9074-65725f425f57,rev?*%
%TF.SameCoordinates,Original*%
%TF.FileFunction,Legend,Bot*%
%TF.FilePolarity,Positive*%
%FSLAX46Y46*%
G04 Gerber Fmt 4.6, Leading zero omitted, Abs format (unit mm)*
G04 Created by KiCad (PCBNEW 7.0.10-7.0.10~ubuntu22.04.1) date 2024-09-08 18:38:02*
%MOMM*%
%LPD*%
G01*
G04 APERTURE LIST*
%ADD10C,0.254000*%
%ADD11C,0.200000*%
%ADD12C,0.152400*%
G04 APERTURE END LIST*
D10*
X108675714Y-116144318D02*
X108978095Y-117414318D01*
X108978095Y-117414318D02*
X109220000Y-116507175D01*
X109220000Y-116507175D02*
X109461905Y-117414318D01*
X109461905Y-117414318D02*
X109764286Y-116144318D01*
X108826904Y-112213365D02*
X108887380Y-112273842D01*
X108887380Y-112273842D02*
X109068809Y-112334318D01*
X109068809Y-112334318D02*
X109189761Y-112334318D01*
X109189761Y-112334318D02*
X109371190Y-112273842D01*
X109371190Y-112273842D02*
X109492142Y-112152889D01*
X109492142Y-112152889D02*
X109552619Y-112031937D01*
X109552619Y-112031937D02*
X109613095Y-111790032D01*
X109613095Y-111790032D02*
X109613095Y-111608603D01*
X109613095Y-111608603D02*
X109552619Y-111366699D01*
X109552619Y-111366699D02*
X109492142Y-111245746D01*
X109492142Y-111245746D02*
X109371190Y-111124794D01*
X109371190Y-111124794D02*
X109189761Y-111064318D01*
X109189761Y-111064318D02*
X109068809Y-111064318D01*
X109068809Y-111064318D02*
X108887380Y-111124794D01*
X108887380Y-111124794D02*
X108826904Y-111185270D01*
D11*
X119892219Y-111409524D02*
X118892219Y-111409524D01*
X118892219Y-112076190D02*
X118892219Y-112266666D01*
X118892219Y-112266666D02*
X118939838Y-112361904D01*
X118939838Y-112361904D02*
X119035076Y-112457142D01*
X119035076Y-112457142D02*
X119225552Y-112504761D01*
X119225552Y-112504761D02*
X119558885Y-112504761D01*
X119558885Y-112504761D02*
X119749361Y-112457142D01*
X119749361Y-112457142D02*
X119844600Y-112361904D01*
X119844600Y-112361904D02*
X119892219Y-112266666D01*
X119892219Y-112266666D02*
X119892219Y-112076190D01*
X119892219Y-112076190D02*
X119844600Y-111980952D01*
X119844600Y-111980952D02*
X119749361Y-111885714D01*
X119749361Y-111885714D02*
X119558885Y-111838095D01*
X119558885Y-111838095D02*
X119225552Y-111838095D01*
X119225552Y-111838095D02*
X119035076Y-111885714D01*
X119035076Y-111885714D02*
X118939838Y-111980952D01*
X118939838Y-111980952D02*
X118892219Y-112076190D01*
X119892219Y-114266666D02*
X119416028Y-113933333D01*
X119892219Y-113695238D02*
X118892219Y-113695238D01*
X118892219Y-113695238D02*
X118892219Y-114076190D01*
X118892219Y-114076190D02*
X118939838Y-114171428D01*
X118939838Y-114171428D02*
X118987457Y-114219047D01*
X118987457Y-114219047D02*
X119082695Y-114266666D01*
X119082695Y-114266666D02*
X119225552Y-114266666D01*
X119225552Y-114266666D02*
X119320790Y-114219047D01*
X119320790Y-114219047D02*
X119368409Y-114171428D01*
X119368409Y-114171428D02*
X119416028Y-114076190D01*
X119416028Y-114076190D02*
X119416028Y-113695238D01*
X119892219Y-114838095D02*
X119844600Y-114742857D01*
X119844600Y-114742857D02*
X119796980Y-114695238D01*
X119796980Y-114695238D02*
X119701742Y-114647619D01*
X119701742Y-114647619D02*
X119416028Y-114647619D01*
X119416028Y-114647619D02*
X119320790Y-114695238D01*
X119320790Y-114695238D02*
X119273171Y-114742857D01*
X119273171Y-114742857D02*
X119225552Y-114838095D01*
X119225552Y-114838095D02*
X119225552Y-114980952D01*
X119225552Y-114980952D02*
X119273171Y-115076190D01*
X119273171Y-115076190D02*
X119320790Y-115123809D01*
X119320790Y-115123809D02*
X119416028Y-115171428D01*
X119416028Y-115171428D02*
X119701742Y-115171428D01*
X119701742Y-115171428D02*
X119796980Y-115123809D01*
X119796980Y-115123809D02*
X119844600Y-115076190D01*
X119844600Y-115076190D02*
X119892219Y-114980952D01*
X119892219Y-114980952D02*
X119892219Y-114838095D01*
X119892219Y-116028571D02*
X118892219Y-116028571D01*
X119844600Y-116028571D02*
X119892219Y-115933333D01*
X119892219Y-115933333D02*
X119892219Y-115742857D01*
X119892219Y-115742857D02*
X119844600Y-115647619D01*
X119844600Y-115647619D02*
X119796980Y-115600000D01*
X119796980Y-115600000D02*
X119701742Y-115552381D01*
X119701742Y-115552381D02*
X119416028Y-115552381D01*
X119416028Y-115552381D02*
X119320790Y-115600000D01*
X119320790Y-115600000D02*
X119273171Y-115647619D01*
X119273171Y-115647619D02*
X119225552Y-115742857D01*
X119225552Y-115742857D02*
X119225552Y-115933333D01*
X119225552Y-115933333D02*
X119273171Y-116028571D01*
X119844600Y-116885714D02*
X119892219Y-116790476D01*
X119892219Y-116790476D02*
X119892219Y-116600000D01*
X119892219Y-116600000D02*
X119844600Y-116504762D01*
X119844600Y-116504762D02*
X119749361Y-116457143D01*
X119749361Y-116457143D02*
X119368409Y-116457143D01*
X119368409Y-116457143D02*
X119273171Y-116504762D01*
X119273171Y-116504762D02*
X119225552Y-116600000D01*
X119225552Y-116600000D02*
X119225552Y-116790476D01*
X119225552Y-116790476D02*
X119273171Y-116885714D01*
X119273171Y-116885714D02*
X119368409Y-116933333D01*
X119368409Y-116933333D02*
X119463647Y-116933333D01*
X119463647Y-116933333D02*
X119558885Y-116457143D01*
X119892219Y-117504762D02*
X119844600Y-117409524D01*
X119844600Y-117409524D02*
X119796980Y-117361905D01*
X119796980Y-117361905D02*
X119701742Y-117314286D01*
X119701742Y-117314286D02*
X119416028Y-117314286D01*
X119416028Y-117314286D02*
X119320790Y-117361905D01*
X119320790Y-117361905D02*
X119273171Y-117409524D01*
X119273171Y-117409524D02*
X119225552Y-117504762D01*
X119225552Y-117504762D02*
X119225552Y-117647619D01*
X119225552Y-117647619D02*
X119273171Y-117742857D01*
X119273171Y-117742857D02*
X119320790Y-117790476D01*
X119320790Y-117790476D02*
X119416028Y-117838095D01*
X119416028Y-117838095D02*
X119701742Y-117838095D01*
X119701742Y-117838095D02*
X119796980Y-117790476D01*
X119796980Y-117790476D02*
X119844600Y-117742857D01*
X119844600Y-117742857D02*
X119892219Y-117647619D01*
X119892219Y-117647619D02*
X119892219Y-117504762D01*
X121454600Y-108909523D02*
X121502219Y-109052380D01*
X121502219Y-109052380D02*
X121502219Y-109290475D01*
X121502219Y-109290475D02*
X121454600Y-109385713D01*
X121454600Y-109385713D02*
X121406980Y-109433332D01*
X121406980Y-109433332D02*
X121311742Y-109480951D01*
X121311742Y-109480951D02*
X121216504Y-109480951D01*
X121216504Y-109480951D02*
X121121266Y-109433332D01*
X121121266Y-109433332D02*
X121073647Y-109385713D01*
X121073647Y-109385713D02*
X121026028Y-109290475D01*
X121026028Y-109290475D02*
X120978409Y-109099999D01*
X120978409Y-109099999D02*
X120930790Y-109004761D01*
X120930790Y-109004761D02*
X120883171Y-108957142D01*
X120883171Y-108957142D02*
X120787933Y-108909523D01*
X120787933Y-108909523D02*
X120692695Y-108909523D01*
X120692695Y-108909523D02*
X120597457Y-108957142D01*
X120597457Y-108957142D02*
X120549838Y-109004761D01*
X120549838Y-109004761D02*
X120502219Y-109099999D01*
X120502219Y-109099999D02*
X120502219Y-109338094D01*
X120502219Y-109338094D02*
X120549838Y-109480951D01*
X121502219Y-109909523D02*
X120502219Y-109909523D01*
X120502219Y-109909523D02*
X120502219Y-110290475D01*
X120502219Y-110290475D02*
X120549838Y-110385713D01*
X120549838Y-110385713D02*
X120597457Y-110433332D01*
X120597457Y-110433332D02*
X120692695Y-110480951D01*
X120692695Y-110480951D02*
X120835552Y-110480951D01*
X120835552Y-110480951D02*
X120930790Y-110433332D01*
X120930790Y-110433332D02*
X120978409Y-110385713D01*
X120978409Y-110385713D02*
X121026028Y-110290475D01*
X121026028Y-110290475D02*
X121026028Y-109909523D01*
X120978409Y-110909523D02*
X120978409Y-111242856D01*
X121502219Y-111385713D02*
X121502219Y-110909523D01*
X121502219Y-110909523D02*
X120502219Y-110909523D01*
X120502219Y-110909523D02*
X120502219Y-111385713D01*
X121216504Y-112528571D02*
X121216504Y-113004761D01*
X121502219Y-112433333D02*
X120502219Y-112766666D01*
X120502219Y-112766666D02*
X121502219Y-113099999D01*
X121502219Y-113861904D02*
X120502219Y-113861904D01*
X121454600Y-113861904D02*
X121502219Y-113766666D01*
X121502219Y-113766666D02*
X121502219Y-113576190D01*
X121502219Y-113576190D02*
X121454600Y-113480952D01*
X121454600Y-113480952D02*
X121406980Y-113433333D01*
X121406980Y-113433333D02*
X121311742Y-113385714D01*
X121311742Y-113385714D02*
X121026028Y-113385714D01*
X121026028Y-113385714D02*
X120930790Y-113433333D01*
X120930790Y-113433333D02*
X120883171Y-113480952D01*
X120883171Y-113480952D02*
X120835552Y-113576190D01*
X120835552Y-113576190D02*
X120835552Y-113766666D01*
X120835552Y-113766666D02*
X120883171Y-113861904D01*
X121502219Y-114766666D02*
X120978409Y-114766666D01*
X120978409Y-114766666D02*
X120883171Y-114719047D01*
X120883171Y-114719047D02*
X120835552Y-114623809D01*
X120835552Y-114623809D02*
X120835552Y-114433333D01*
X120835552Y-114433333D02*
X120883171Y-114338095D01*
X121454600Y-114766666D02*
X121502219Y-114671428D01*
X121502219Y-114671428D02*
X121502219Y-114433333D01*
X121502219Y-114433333D02*
X121454600Y-114338095D01*
X121454600Y-114338095D02*
X121359361Y-114290476D01*
X121359361Y-114290476D02*
X121264123Y-114290476D01*
X121264123Y-114290476D02*
X121168885Y-114338095D01*
X121168885Y-114338095D02*
X121121266Y-114433333D01*
X121121266Y-114433333D02*
X121121266Y-114671428D01*
X121121266Y-114671428D02*
X121073647Y-114766666D01*
X120835552Y-115242857D02*
X121835552Y-115242857D01*
X120883171Y-115242857D02*
X120835552Y-115338095D01*
X120835552Y-115338095D02*
X120835552Y-115528571D01*
X120835552Y-115528571D02*
X120883171Y-115623809D01*
X120883171Y-115623809D02*
X120930790Y-115671428D01*
X120930790Y-115671428D02*
X121026028Y-115719047D01*
X121026028Y-115719047D02*
X121311742Y-115719047D01*
X121311742Y-115719047D02*
X121406980Y-115671428D01*
X121406980Y-115671428D02*
X121454600Y-115623809D01*
X121454600Y-115623809D02*
X121502219Y-115528571D01*
X121502219Y-115528571D02*
X121502219Y-115338095D01*
X121502219Y-115338095D02*
X121454600Y-115242857D01*
X120835552Y-116004762D02*
X120835552Y-116385714D01*
X120502219Y-116147619D02*
X121359361Y-116147619D01*
X121359361Y-116147619D02*
X121454600Y-116195238D01*
X121454600Y-116195238D02*
X121502219Y-116290476D01*
X121502219Y-116290476D02*
X121502219Y-116385714D01*
X121454600Y-117100000D02*
X121502219Y-117004762D01*
X121502219Y-117004762D02*
X121502219Y-116814286D01*
X121502219Y-116814286D02*
X121454600Y-116719048D01*
X121454600Y-116719048D02*
X121359361Y-116671429D01*
X121359361Y-116671429D02*
X120978409Y-116671429D01*
X120978409Y-116671429D02*
X120883171Y-116719048D01*
X120883171Y-116719048D02*
X120835552Y-116814286D01*
X120835552Y-116814286D02*
X120835552Y-117004762D01*
X120835552Y-117004762D02*
X120883171Y-117100000D01*
X120883171Y-117100000D02*
X120978409Y-117147619D01*
X120978409Y-117147619D02*
X121073647Y-117147619D01*
X121073647Y-117147619D02*
X121168885Y-116671429D01*
X121502219Y-117576191D02*
X120835552Y-117576191D01*
X121026028Y-117576191D02*
X120930790Y-117623810D01*
X120930790Y-117623810D02*
X120883171Y-117671429D01*
X120883171Y-117671429D02*
X120835552Y-117766667D01*
X120835552Y-117766667D02*
X120835552Y-117861905D01*
X120978409Y-119290477D02*
X121026028Y-119433334D01*
X121026028Y-119433334D02*
X121073647Y-119480953D01*
X121073647Y-119480953D02*
X121168885Y-119528572D01*
X121168885Y-119528572D02*
X121311742Y-119528572D01*
X121311742Y-119528572D02*
X121406980Y-119480953D01*
X121406980Y-119480953D02*
X121454600Y-119433334D01*
X121454600Y-119433334D02*
X121502219Y-119338096D01*
X121502219Y-119338096D02*
X121502219Y-118957144D01*
X121502219Y-118957144D02*
X120502219Y-118957144D01*
X120502219Y-118957144D02*
X120502219Y-119290477D01*
X120502219Y-119290477D02*
X120549838Y-119385715D01*
X120549838Y-119385715D02*
X120597457Y-119433334D01*
X120597457Y-119433334D02*
X120692695Y-119480953D01*
X120692695Y-119480953D02*
X120787933Y-119480953D01*
X120787933Y-119480953D02*
X120883171Y-119433334D01*
X120883171Y-119433334D02*
X120930790Y-119385715D01*
X120930790Y-119385715D02*
X120978409Y-119290477D01*
X120978409Y-119290477D02*
X120978409Y-118957144D01*
X122112219Y-110195238D02*
X123112219Y-110433333D01*
X123112219Y-110433333D02*
X122397933Y-110623809D01*
X122397933Y-110623809D02*
X123112219Y-110814285D01*
X123112219Y-110814285D02*
X122112219Y-111052381D01*
X123016980Y-112004761D02*
X123064600Y-111957142D01*
X123064600Y-111957142D02*
X123112219Y-111814285D01*
X123112219Y-111814285D02*
X123112219Y-111719047D01*
X123112219Y-111719047D02*
X123064600Y-111576190D01*
X123064600Y-111576190D02*
X122969361Y-111480952D01*
X122969361Y-111480952D02*
X122874123Y-111433333D01*
X122874123Y-111433333D02*
X122683647Y-111385714D01*
X122683647Y-111385714D02*
X122540790Y-111385714D01*
X122540790Y-111385714D02*
X122350314Y-111433333D01*
X122350314Y-111433333D02*
X122255076Y-111480952D01*
X122255076Y-111480952D02*
X122159838Y-111576190D01*
X122159838Y-111576190D02*
X122112219Y-111719047D01*
X122112219Y-111719047D02*
X122112219Y-111814285D01*
X122112219Y-111814285D02*
X122159838Y-111957142D01*
X122159838Y-111957142D02*
X122207457Y-112004761D01*
X123112219Y-113004761D02*
X122636028Y-112671428D01*
X123112219Y-112433333D02*
X122112219Y-112433333D01*
X122112219Y-112433333D02*
X122112219Y-112814285D01*
X122112219Y-112814285D02*
X122159838Y-112909523D01*
X122159838Y-112909523D02*
X122207457Y-112957142D01*
X122207457Y-112957142D02*
X122302695Y-113004761D01*
X122302695Y-113004761D02*
X122445552Y-113004761D01*
X122445552Y-113004761D02*
X122540790Y-112957142D01*
X122540790Y-112957142D02*
X122588409Y-112909523D01*
X122588409Y-112909523D02*
X122636028Y-112814285D01*
X122636028Y-112814285D02*
X122636028Y-112433333D01*
X122112219Y-114052381D02*
X123112219Y-114385714D01*
X123112219Y-114385714D02*
X122112219Y-114719047D01*
X122112219Y-115242857D02*
X122112219Y-115338095D01*
X122112219Y-115338095D02*
X122159838Y-115433333D01*
X122159838Y-115433333D02*
X122207457Y-115480952D01*
X122207457Y-115480952D02*
X122302695Y-115528571D01*
X122302695Y-115528571D02*
X122493171Y-115576190D01*
X122493171Y-115576190D02*
X122731266Y-115576190D01*
X122731266Y-115576190D02*
X122921742Y-115528571D01*
X122921742Y-115528571D02*
X123016980Y-115480952D01*
X123016980Y-115480952D02*
X123064600Y-115433333D01*
X123064600Y-115433333D02*
X123112219Y-115338095D01*
X123112219Y-115338095D02*
X123112219Y-115242857D01*
X123112219Y-115242857D02*
X123064600Y-115147619D01*
X123064600Y-115147619D02*
X123016980Y-115100000D01*
X123016980Y-115100000D02*
X122921742Y-115052381D01*
X122921742Y-115052381D02*
X122731266Y-115004762D01*
X122731266Y-115004762D02*
X122493171Y-115004762D01*
X122493171Y-115004762D02*
X122302695Y-115052381D01*
X122302695Y-115052381D02*
X122207457Y-115100000D01*
X122207457Y-115100000D02*
X122159838Y-115147619D01*
X122159838Y-115147619D02*
X122112219Y-115242857D01*
X123016980Y-116004762D02*
X123064600Y-116052381D01*
X123064600Y-116052381D02*
X123112219Y-116004762D01*
X123112219Y-116004762D02*
X123064600Y-115957143D01*
X123064600Y-115957143D02*
X123016980Y-116004762D01*
X123016980Y-116004762D02*
X123112219Y-116004762D01*
X123112219Y-117004761D02*
X123112219Y-116433333D01*
X123112219Y-116719047D02*
X122112219Y-116719047D01*
X122112219Y-116719047D02*
X122255076Y-116623809D01*
X122255076Y-116623809D02*
X122350314Y-116528571D01*
X122350314Y-116528571D02*
X122397933Y-116433333D01*
X123112219Y-118004761D02*
X122636028Y-117671428D01*
X123112219Y-117433333D02*
X122112219Y-117433333D01*
X122112219Y-117433333D02*
X122112219Y-117814285D01*
X122112219Y-117814285D02*
X122159838Y-117909523D01*
X122159838Y-117909523D02*
X122207457Y-117957142D01*
X122207457Y-117957142D02*
X122302695Y-118004761D01*
X122302695Y-118004761D02*
X122445552Y-118004761D01*
X122445552Y-118004761D02*
X122540790Y-117957142D01*
X122540790Y-117957142D02*
X122588409Y-117909523D01*
X122588409Y-117909523D02*
X122636028Y-117814285D01*
X122636028Y-117814285D02*
X122636028Y-117433333D01*
X123112219Y-118957142D02*
X123112219Y-118385714D01*
X123112219Y-118671428D02*
X122112219Y-118671428D01*
X122112219Y-118671428D02*
X122255076Y-118576190D01*
X122255076Y-118576190D02*
X122350314Y-118480952D01*
X122350314Y-118480952D02*
X122397933Y-118385714D01*
D10*
X108826904Y-114874318D02*
X109250238Y-114269556D01*
X109552619Y-114874318D02*
X109552619Y-113604318D01*
X109552619Y-113604318D02*
X109068809Y-113604318D01*
X109068809Y-113604318D02*
X108947857Y-113664794D01*
X108947857Y-113664794D02*
X108887380Y-113725270D01*
X108887380Y-113725270D02*
X108826904Y-113846222D01*
X108826904Y-113846222D02*
X108826904Y-114027651D01*
X108826904Y-114027651D02*
X108887380Y-114148603D01*
X108887380Y-114148603D02*
X108947857Y-114209080D01*
X108947857Y-114209080D02*
X109068809Y-114269556D01*
X109068809Y-114269556D02*
X109552619Y-114269556D01*
D12*
X107351164Y-110063095D02*
X107351164Y-109047095D01*
X107351164Y-109047095D02*
X106964116Y-109047095D01*
X106964116Y-109047095D02*
X106867354Y-109095476D01*
X106867354Y-109095476D02*
X106818973Y-109143857D01*
X106818973Y-109143857D02*
X106770592Y-109240619D01*
X106770592Y-109240619D02*
X106770592Y-109385762D01*
X106770592Y-109385762D02*
X106818973Y-109482524D01*
X106818973Y-109482524D02*
X106867354Y-109530905D01*
X106867354Y-109530905D02*
X106964116Y-109579286D01*
X106964116Y-109579286D02*
X107351164Y-109579286D01*
X106383545Y-109143857D02*
X106335164Y-109095476D01*
X106335164Y-109095476D02*
X106238402Y-109047095D01*
X106238402Y-109047095D02*
X105996497Y-109047095D01*
X105996497Y-109047095D02*
X105899735Y-109095476D01*
X105899735Y-109095476D02*
X105851354Y-109143857D01*
X105851354Y-109143857D02*
X105802973Y-109240619D01*
X105802973Y-109240619D02*
X105802973Y-109337381D01*
X105802973Y-109337381D02*
X105851354Y-109482524D01*
X105851354Y-109482524D02*
X106431926Y-110063095D01*
X106431926Y-110063095D02*
X105802973Y-110063095D01*
%TO.C,P2*%
X107950000Y-110490000D02*
X105410000Y-110490000D01*
X105410000Y-110490000D02*
X105410000Y-118110000D01*
X105410000Y-113030000D02*
X107950000Y-113030000D01*
X107950000Y-118110000D02*
X107950000Y-110490000D01*
X105410000Y-118110000D02*
X107950000Y-118110000D01*
%TD*%
M02*
